# AST/ASF file generated using VICON BodyLanguage
# -----------------------------------------------
:version 1.10
:name VICON
:units
  mass 1.0
  length 0.45
  angle deg
:documentation
   .ast/.asf automatically generated from VICON data using
   VICON BodyBuilder and BodyLanguage model FoxedUp or BRILLIANT.MOD
:root
   order TX TY TZ RX RY RZ
   axis XYZ
   position 0 0 0  
   orientation 0 0 0 
:bonedata
  begin
     id 1 
     name lhipjoint
     direction 0.610259 -0.730986 0.305356 
     length 2.50941 
     axis 0 0 0  XYZ
  end
  begin
     id 2 
     name lfemur
     direction 0.34202 -0.939693 0  
     length 7.48822  
     axis 0 0 20  XYZ
    dof rx ry rz
    limits (-160.0 20.0)
           (-70.0 70.0)
           (-60.0 70.0)
  end
  begin
     id 3 
     name ltibia
     direction 0.34202 -0.939693 0   
     length 7.60141   
     axis 0 0 20   XYZ
    dof rx
    limits (-10.0 170.0)
  end
  begin
     id 4 
     name lfoot
     direction 0.0673488 -0.185039 0.980421   
     length 2.04049   
     axis -90 7.62852e-016 20   XYZ
    dof rx rz
    limits (-45.0 90.0)
           (-70.0 20.0)
  end
  begin
     id 5 
     name ltoes
     direction 1.5356e-011 -4.21729e-011 1   
     length 1.02897   
     axis -90 7.62852e-016 20   XYZ
    dof rx
    limits (-90.0 20.0)
  end
  begin
     id 6 
     name rhipjoint
     direction -0.57612 -0.754205 0.315056   
     length 2.43216  
     axis 0 0 0  XYZ 
  end
  begin
     id 7 
     name rfemur
     direction -0.34202 -0.939693 0   
     length 7.42799   
     axis 0 0 -20   XYZ
    dof rx ry rz
    limits (-160.0 20.0)
           (-70.0 70.0)
           (-70.0 60.0)
  end
  begin
     id 8 
     name rtibia
     direction -0.34202 -0.939693 0   
     length 7.69484   
     axis 0 0 -20   XYZ
    dof rx
    limits (-10.0 170.0)
 end
 begin
     id 9 
     name rfoot
     direction -0.111837 -0.30727 0.945028   
     length 2.15769  
     axis -90 -7.62852e-016 -20   XYZ
    dof rx rz
    limits (-45.0 90.0)
           (-20.0 70.0)
  end
  begin
     id 10 
     name rtoes
     direction -1.53539e-011 -4.21878e-011 1   
     length 1.07391   
     axis -90 -7.62852e-016 -20   XYZ
    dof rx
    limits (-90.0 20.0)
  end
  begin
     id 11 
     name lowerback
     direction 0.00552624 0.990109 -0.140195   
     length 2.12403   
     axis 0 0 0   XYZ
    dof rx ry rz
    limits (-20.0 45.0)
           (-30.0 30.0)
           (-30.0 30.0)
  end
  begin
     id 12 
     name upperback
     direction 0.00361898 0.999976 -0.00584723   
     length 2.13232   
     axis 0 0 0   XYZ
    dof rx ry rz
    limits (-20.0 45.0)
           (-30.0 30.0)
           (-30.0 30.0)
  end
  begin
     id 13 
     name thorax
     direction -0.000331275 0.998253 0.0590847   
     length 2.17688   
     axis 0 0 0   XYZ
    dof rx ry rz
    limits (-20.0 45.0)
           (-30.0 30.0)
           (-30.0 30.0)
  end
  begin
     id 14 
     name lowerneck
     direction -0.0561561 0.979832 0.19177   
     length 1.64159   
     axis 0 0 0   XYZ
    dof rx ry rz
    limits (-20.0 45.0)
           (-30.0 30.0)
           (-30.0 30.0)
  end
  begin
     id 15 
     name upperneck
     direction 0.0827153 0.979385 -0.184293   
     length 1.68939   
     axis 0 0 0   XYZ
    dof rx ry rz
    limits (-20.0 45.0)
           (-30.0 30.0)
           (-30.0 30.0)
  end
  begin
     id 16
     name head
     direction 0.0278583 0.995936 -0.0856488  
     length 1.70207  
     axis 0 0 0   XYZ
    dof rx ry rz
    limits (-20.0 45.0)
           (-30.0 30.0)
           (-30.0 30.0)
  end
  begin
     id 17 
     name lclavicle
     direction 0.950993 0.301131 -0.0702275  
     length 3.41652  
     axis 0 0 0   XYZ
    dof ry rz
    limits (-20.0 10.0)
           (0.0 20.0)
  end
  begin
     id 18 
     name lhumerus
     direction 1 -4.48981e-011 -3.9662e-029   
     length 5.32955   
     axis 180 -30 -90   XYZ
    dof rx ry rz
    limits (-60.0 90.0)
           (-90.0 90.0)
           (-90.0 90.0)
  end
  begin
     id 19
     name lradius
     direction 1 -4.48925e-011 -9.0549e-027   
     length 3.69232   
     axis 180 -30 -90   XYZ
    dof rx
    limits (-10.0 170.0)
  end
  begin
     id 20
     name lwrist
     direction 1 -4.49007e-011 -1.49005e-026   
     length 1.84616   
     axis 9.0955e-015 90 90   XYZ
    dof ry
    limits (-180.0 0.0)
 end
  begin
     id 21 
     name lhand
     direction 1 -4.49016e-011 -2.98023e-026   
     length 0.536598   
     axis 1.90115e-014 90 90   XYZ
    dof rx rz
    limits (-90.0 90.0)
           (-45.0 45.0)
  end
  begin
     id 22 
     name lfingers
     direction 1 -4.48924e-011 -5.9578e-026   
     length 0.432619   
     axis 3.80223e-014 90 90   XYZ
    dof rx
    limits (0.0 90.0)
  end
  begin
     id 23
     name lthumb
     direction 0.707107 -6.34947e-011 0.707107   
     length 0.621157   
     axis -90 45 -3.84942e-014   XYZ
    dof rx rz
    limits (-45.0 45.0)
           (-45.0 45.0)
  end
  begin
     id 24 
     name rclavicle
     direction -0.955495 0.276497 -0.102848   
     length 3.36357  
     axis 0 0 0   XYZ 
    dof ry rz
    limits (-10.0 20.0)
           (-20.0 0.0)
  end
  begin
     id 25 
     name rhumerus
     direction -1 -4.48961e-011 3.30983e-027  
     length 5.23431   
     axis 180 30 90   XYZ
    dof rx ry rz
    limits (-90.0 60.0)
           (-90.0 90.0)
           (-90.0 90.0)
  end
  begin
     id 26 
     name rradius
     direction -1 -4.48965e-011 -6.63263e-027   
     length 3.55301   
     axis 180 30 90   XYZ
    dof rx
    limits (-10.0 170.0)
  end
  begin
     id 27 
     name rwrist
     direction -1 -4.48942e-011 -1.48958e-026   
     length 1.77651   
     axis 9.0955e-015 -90 -90   XYZ
    dof ry
    limits (-180.0 0.0)
  end
  begin
     id 28
     name rhand
     direction -1 -4.48977e-011 -2.97966e-026   
     length 0.772522   
     axis 1.90115e-014 -90 -90   XYZ
    dof rx rz
    limits (-90.0 90.0)
           (-45.0 45.0)
  end
  begin
     id 29
     name rfingers
     direction -1 -4.49135e-011 -5.96389e-026   
     length 0.622827   
     axis 3.80223e-014 -90 -90   XYZ
    dof rx
    limits (0.0 90.0)
  end
  begin
     id 30
     name rthumb
     direction -0.707107 -6.34969e-011 0.707107   
     length 0.894259   
     axis -90 -45 3.84942e-014   XYZ
    dof rx rz
    limits (-45.0 45.0)
           (-45.0 45.0)
  end
:hierarchy
  begin
    root lhipjoint rhipjoint lowerback
    lhipjoint lfemur
    lfemur ltibia
    ltibia lfoot
    lfoot ltoes
    rhipjoint rfemur
    rfemur rtibia
    rtibia rfoot
    rfoot rtoes
    lowerback upperback
    upperback thorax
    thorax lowerneck lclavicle rclavicle
    lowerneck upperneck
    upperneck head
    lclavicle lhumerus
    lhumerus lradius
    lradius lwrist
    lwrist lhand lthumb
    lhand lfingers
    rclavicle rhumerus
    rhumerus rradius
    rradius rwrist
    rwrist rhand rthumb
    rhand rfingers
  end

#!OML:ASF F:\VICON\USERDATA\INSTALL\rory3\rory3.ASF
:FULLY-SPECIFIED
:DEGREES
17
root 13.5519 18.1109 -16.5468 1.7417 3.89967 3.54575
lowerback 10.1234 1.93726 -2.58314
upperback 1.14114 2.22414 -1.31484
thorax -4.53102 1.13505 -0.224887
lowerneck -19.6737 -7.41235 -13.0921
upperneck 25.3347 -9.00419 9.35531
head 12.7754 -4.08919 4.2367
rclavicle -2.98798e-015 4.47266e-016
rhumerus -33.5292 -12.2838 -82.386
rradius 31.2204
rwrist 6.0106
rhand -14.6168 11.3896
rfingers 7.12502
rthumb 11.5343 -18.2731
lclavicle -2.98798e-015 4.47266e-016
lhumerus -35.0785 15.8264 77.2897
lradius 28.5836
lwrist -8.73703
lhand -16.6763 23.4212
lfingers 7.12502
lthumb 9.54766 53.1849
rfemur -2.81652 -3.52616 17.4344
rtibia 53.7334
rfoot 13.0951 0.927782
rtoes 0.0129589
lfemur -6.50229 5.95147 -27.986
ltibia 5.76411
lfoot -0.76107 -12.3468
ltoes 2.44306
18
root 13.5708 18.1128 -16.4258 1.48398 3.94663 3.7391
lowerback 10.3262 1.8664 -2.80568
upperback 1.20042 2.0979 -1.32722
thorax -4.5874 1.07643 -0.10085
lowerneck -19.6971 -7.35612 -13.1791
upperneck 25.3554 -8.9195 9.44337
head 12.7866 -4.04907 4.30248
rclavicle -1.42876e-015 1.5704e-014
rhumerus -33.5822 -12.1046 -82.3486
rradius 31.4241
rwrist 5.70413
rhand -14.3095 11.0411
rfingers 7.12502
rthumb 11.8307 -18.6047
lclavicle -1.42876e-015 1.5704e-014
lhumerus -34.8079 15.2143 77.6555
lradius 28.8962
lwrist -8.58837
lhand -17.0461 24.0958
lfingers 7.12502
lthumb 9.19084 53.8755
rfemur -3.86962 -3.70052 17.0779
rtibia 55.6614
rfoot 11.7463 0.110436
rtoes 1.5949
lfemur -4.6349 6.02426 -28.1644
ltibia 3.58968
lfoot -0.182891 -12.5011
ltoes 1.70925
19
root 13.5859 18.1123 -16.3113 1.33228 4.06585 3.90794
lowerback 10.3837 1.74214 -3.03824
upperback 1.27627 1.90669 -1.31821
thorax -4.544 0.985351 0.0661502
lowerneck -19.7069 -7.2767 -13.3433
upperneck 25.3357 -8.79574 9.60353
head 12.7814 -3.99054 4.4165
rclavicle 1.8692e-014 1.06847e-014
rhumerus -33.5685 -11.7248 -82.4336
rradius 31.7026
rwrist 5.28834
rhand -14.0369 10.3723
rfingers 7.12502
rthumb 12.0935 -19.2582
lclavicle 1.8692e-014 1.06847e-014
lhumerus -34.6339 14.2191 78.1535
lradius 29.6266
lwrist -8.00673
lhand -17.0714 25.1028
lfingers 7.12502
lthumb 9.16644 54.8836
rfemur -4.99563 -3.93708 16.7929
rtibia 57.4047
rfoot 10.5037 -0.725669
rtoes -1.86009
lfemur -2.21823 6.0125 -28.3256
ltibia 1.35174e-014
lfoot 1.21372 -12.6691
ltoes 1.44409
20
root 13.6026 18.1143 -16.1992 1.38213 4.29103 4.19391
lowerback 9.97406 1.58341 -3.31718
upperback 1.49599 1.68812 -1.36927
thorax -4.08741 0.875853 0.216517
lowerneck -19.7361 -7.2276 -13.3651
upperneck 25.1609 -8.70319 9.61665
head 12.7057 -3.94853 4.43717
rclavicle -2.70471e-014 2.60905e-014
rhumerus -33.1728 -11.771 -82.4421
rradius 31.7404
rwrist 5.26818
rhand -13.891 10.4941
rfingers 7.12502
rthumb 12.2342 -19.128
lclavicle -2.70471e-014 2.60905e-014
lhumerus -34.0377 13.1858 78.7169
lradius 30.1693
lwrist -7.3786
lhand -17.0733 25.4225
lfingers 7.12502
lthumb 9.16461 55.2033
rfemur -6.30889 -4.27755 16.3729
rtibia 58.9741
rfoot 9.91416 -1.42296
rtoes 3.65917
lfemur -1.82884 5.86302 -28.6434
ltibia -1.5704e-014
lfoot 0.925354 -12.6924
ltoes 1.78948
21
root 13.6199 18.1242 -16.08 1.33851 4.4447 4.43432
lowerback 10.2835 1.52204 -3.57748
upperback 1.27837 1.55395 -1.41965
thorax -4.48859 0.819362 0.316146
lowerneck -19.6533 -7.18001 -13.3671
upperneck 25.384 -8.6469 9.56347
head 12.7678 -3.93446 4.4349
rclavicle -1.63687e-014 -8.29926e-015
rhumerus -33.6154 -12.0481 -82.1982
rradius 31.9479
rwrist 5.35012
rhand -13.8772 10.6532
rfingers 7.12502
rthumb 12.2475 -18.9682
lclavicle -1.63687e-014 -8.29926e-015
lhumerus -33.755 12.4489 78.9723
lradius 29.986
lwrist -7.08751
lhand -16.8977 25.2901
lfingers 7.12502
lthumb 9.33403 55.0634
rfemur -7.45121 -4.51972 15.9914
rtibia 60.3158
rfoot 9.10507 -2.47415
rtoes 5.57846
lfemur -1.30016 5.8001 -28.9017
ltibia -1.44119e-015
lfoot 0.602627 -12.6754
ltoes 2.12247
22
root 13.6337 18.1271 -15.9645 1.2996 4.56131 4.46428
lowerback 10.4054 1.46038 -3.66158
upperback 1.21117 1.45431 -1.41839
thorax -4.6257 0.773839 0.374574
lowerneck -19.7427 -7.14942 -13.2409
upperneck 25.5181 -8.61169 9.45896
head 12.8223 -3.91806 4.38123
rclavicle -4.24281e-015 9.19379e-015
rhumerus -33.7402 -12.1318 -82.1371
rradius 32.1848
rwrist 5.29481
rhand -14.0311 10.5172
rfingers 7.12502
rthumb 12.0991 -19.113
lclavicle -4.24281e-015 9.19379e-015
lhumerus -33.2834 12.0388 79.2012
lradius 29.9345
lwrist -7.19956
lhand -17.3346 25.7987
lfingers 7.12502
lthumb 8.91249 55.5904
rfemur -8.64138 -4.66984 15.9175
rtibia 61.5072
rfoot 7.94308 -3.54652
rtoes 6.20594
lfemur -0.828229 5.77998 -28.9091
ltibia -8.64713e-015
lfoot 0.28752 -12.6289
ltoes 2.71
